<?xml version="1.0" encoding="UTF-8"?>
<svg version="1.1" xmlns="http://www.w3.org/2000/svg" width="400" height="80">
<path d="M0 0 C33 0 66 0 100 0 C100 26.4 100 52.8 100 80 C67 80 34 80 0 80 C-0.33 70.76 -0.66 61.52 -1 52 C-3.97 48.7 -6.94 45.4 -10 42 C-8 38 -8 38 -1 29 C-0.67 19.43 -0.34 9.86 0 0 Z M37 17 C32.81171861 25.12938552 28.99691824 33.42056671 25.21411133 41.74365234 C24.17612498 44.0250007 23.1321034 46.30352729 22.08789062 48.58203125 C21.42671606 50.03368695 20.76589539 51.48550389 20.10546875 52.9375 C19.79304733 53.6176416 19.48062592 54.2977832 19.15873718 54.99853516 C17.53967976 58.36382641 17.53967976 58.36382641 17 62 C19.31 62 21.62 62 24 62 C24.67408308 60.73308493 25.33900497 59.46129251 26 58.1875 C26.37125 57.47980469 26.7425 56.77210937 27.125 56.04296875 C28.19685358 53.91079271 28.19685358 53.91079271 28 51 C36.25 51 44.5 51 53 51 C53.99 53.97 54.98 56.94 56 60 C56.33 60.66 56.66 61.32 57 62 C59.31 62 61.62 62 64 62 C62.73673121 57.19593456 61.16587609 52.9306516 59 48.4375 C58.38145294 47.14257563 57.76436301 45.8469546 57.1484375 44.55078125 C56.64135254 43.484646 56.64135254 43.484646 56.12402344 42.39697266 C53.44320859 36.68015246 50.87570059 30.91004873 48.2890625 25.15014648 C47.8765625 24.23692627 47.4640625 23.32370605 47.0390625 22.3828125 C46.48532959 21.15135498 46.48532959 21.15135498 45.92041016 19.89501953 C45.14530218 18.03626157 45.14530218 18.03626157 44 17 C41.66702567 16.95907063 39.33294775 16.95758277 37 17 Z M70 17 C70 31.85 70 46.7 70 62 C72.31 62 74.62 62 77 62 C77 47.15 77 32.3 77 17 C74.69 17 72.38 17 70 17 Z " fill="#FFFFFF" transform="translate(300,0)"/>
<path d="M0 0 C4.29 0 8.58 0 13 0 C14.17215114 3.43571853 15.33792147 6.8733757 16.5 10.3125 C16.83386719 11.28896484 17.16773437 12.26542969 17.51171875 13.27148438 C17.82753906 14.20927734 18.14335937 15.14707031 18.46875 16.11328125 C18.90864258 17.40939331 18.90864258 17.40939331 19.35742188 18.73168945 C20 21 20 21 20 24 C20.66 24 21.32 24 22 24 C25.86490893 12.08169998 25.86490893 12.08169998 24 0 C27.63 0 31.26 0 35 0 C36.33735614 3.4568268 37.67004741 6.91532602 39 10.375 C39.3815625 11.35984375 39.763125 12.3446875 40.15625 13.359375 C40.69765625 14.77089844 40.69765625 14.77089844 41.25 16.2109375 C41.58515625 17.08024902 41.9203125 17.94956055 42.265625 18.84521484 C43 21 43 21 43 23 C43.66 23 44.32 23 45 23 C45.14695312 22.14341797 45.14695312 22.14341797 45.296875 21.26953125 C46.63894089 13.99229466 48.72801206 7.03654517 51 0 C54.96 0 58.92 0 63 0 C59.69802599 9.55516288 56.26361816 19.03611812 52.54785156 28.4387207 C50.2036189 34.39403864 48.07920368 40.40564912 46.04296875 46.47265625 C45 49 45 49 43 50 C39.7 41.75 36.4 33.5 33 25 C31.783125 27.454375 30.56625 29.90875 29.3125 32.4375 C26.35487896 38.37745421 23.32072951 44.25258354 20 50 C17.7906244 47.7906244 17.22057282 46.30733739 16.15234375 43.3984375 C15.79841553 42.44388672 15.4444873 41.48933594 15.07983398 40.50585938 C14.70286377 39.47267578 14.32589355 38.43949219 13.9375 37.375 C13.13558179 35.20566812 12.33349317 33.03639923 11.53125 30.8671875 C10.91056641 29.18061035 10.91056641 29.18061035 10.27734375 27.45996094 C8.1870721 21.79800952 6.06089679 16.14959218 3.9375 10.5 C3.17561047 8.46881405 2.41387584 6.43756999 1.65234375 4.40625 C1.10707031 2.9521875 0.56179687 1.498125 0 0 Z " fill="#FFFFFF" transform="translate(1,16)"/>
<path d="M0 0 C4.5371643 1.13429108 5.59865413 2.30303986 8.75 5.625 C12.44868562 9.44352522 16.22042591 13.02289445 20.2578125 16.4765625 C22.61722884 18.53972926 24.78441769 20.78441769 27 23 C28.65 24.32 30.3 25.64 32 27 C32.33 18.42 32.66 9.84 33 1 C36.3 1 39.6 1 43 1 C43 17.83 43 34.66 43 52 C37.93971664 48.20478748 34.19178914 45.35708051 30 41 C27.47992772 38.5810985 24.9270577 36.19757736 22.375 33.8125 C21.70726562 33.18408203 21.03953125 32.55566406 20.3515625 31.90820312 C19.70703125 31.30556641 19.0625 30.70292969 18.3984375 30.08203125 C17.81755371 29.53780518 17.23666992 28.9935791 16.63818359 28.43286133 C14.84949555 26.80558257 14.84949555 26.80558257 12 25 C11.67 32.92 11.34 40.84 11 49 C7.37 49 3.74 49 0 49 C0 32.83 0 16.66 0 0 Z " fill="#FFFFFF" transform="translate(119,14)"/>
<path d="M0 0 C10.89 0 21.78 0 33 0 C33 3.63 33 7.26 33 11 C25.74 11 18.48 11 11 11 C11 13.97 11 16.94 11 20 C17.27 20 23.54 20 30 20 C30 23.3 30 26.6 30 30 C23.73 30 17.46 30 11 30 C11 32.97 11 35.94 11 39 C18.59 39 26.18 39 34 39 C34 41.97 34 44.94 34 48 C22.78 48 11.56 48 0 48 C0 32.16 0 16.32 0 0 Z " fill="#FFFFFF" transform="translate(170,15)"/>
<path d="M0 0 C0 3.79557881 -0.50178941 5.62902617 -2 9 C-4.76276177 8.47731534 -7.3260876 7.89130413 -10 7 C-12.33299825 6.96045766 -14.66708189 6.95598268 -17 7 C-17.66 8.32 -18.32 9.64 -19 11 C-15.86186065 13.82432541 -12.73188868 15.66641164 -8.9375 17.4375 C-4.90853322 19.41601047 -2.18113778 20.92222068 0 25 C1.51822664 30.78823908 1.13919625 34.11107358 -1.82421875 39.3046875 C-4.31028359 42.8892461 -6.84364646 44.14210496 -11 45 C-18.6676938 45.74717144 -25.22474499 44.81979398 -32 41 C-32.33 40.34 -32.66 39.68 -33 39 C-32.22265625 37.2734375 -32.22265625 37.2734375 -31.0625 35.375 C-30.381875 34.26125 -29.70125 33.1475 -29 32 C-26.61377435 32.55066746 -24.47099034 33.21160386 -22.1875 34.125 C-18.43850918 35.15413474 -15.77904483 34.75580897 -12 34 C-11.22757731 32.16299211 -11.22757731 32.16299211 -11 30 C-13.9661499 26.10431721 -18.75978189 24.65913238 -23.08984375 22.6953125 C-26.33978351 20.802059 -28.00247466 19.1772403 -30 16 C-31.02526487 11.48617155 -31.01819867 6.96317073 -28.859375 2.80078125 C-20.90910722 -7.17889699 -10.21461902 -4.68867758 0 0 Z " fill="#FFFFFF" transform="translate(238,19)"/>
<path d="M0 0 C0 3.79557881 -0.50178941 5.62902617 -2 9 C-4.76276177 8.47731534 -7.3260876 7.89130413 -10 7 C-11.39439664 6.93334624 -12.79169875 6.91461801 -14.1875 6.9375 C-15.445625 6.958125 -16.70375 6.97875 -18 7 C-18.33 8.98 -18.66 10.96 -19 13 C-18.28070313 13.27972656 -17.56140625 13.55945313 -16.8203125 13.84765625 C-14.11505529 14.95298987 -11.49798176 16.15007318 -8.875 17.4375 C-8.02679688 17.84871094 -7.17859375 18.25992188 -6.3046875 18.68359375 C-2.76790466 20.70375615 -1.29707219 22.10878343 0 26 C0.5181822 30.93547304 0.50986551 34.87829589 -1.5625 39.4375 C-5.99285322 44.09505082 -10.0822421 45.16470622 -16.3125 45.4375 C-22.01525679 45.28763502 -27.02652642 43.80397482 -32 41 C-32.33 40.34 -32.66 39.68 -33 39 C-32.22265625 37.2734375 -32.22265625 37.2734375 -31.0625 35.375 C-30.381875 34.26125 -29.70125 33.1475 -29 32 C-26.61377435 32.55066746 -24.47099034 33.21160386 -22.1875 34.125 C-18.43850918 35.15413474 -15.77904483 34.75580897 -12 34 C-11.67 33.01 -11.34 32.02 -11 31 C-13.89736843 27.82246151 -16.65918728 25.96707884 -20.5 24.0625 C-27.74800683 20.19689636 -27.74800683 20.19689636 -30 16 C-31.56181535 10.37746473 -30.77951205 7.07979788 -28 2 C-20.21261303 -7.60444392 -9.84049914 -4.05197023 0 0 Z " fill="#FFFFFF" transform="translate(272,19)"/>
<path d="M0 0 C4.53897705 -0.02465392 9.07791543 -0.04283789 13.61694336 -0.05493164 C15.16219766 -0.0599714 16.70744716 -0.0668032 18.25268555 -0.07543945 C20.46925029 -0.08752076 22.68575218 -0.09323173 24.90234375 -0.09765625 C25.5971434 -0.10281754 26.29194305 -0.10797882 27.00779724 -0.11329651 C28.6722933 -0.11349277 30.33665499 -0.06189129 32 0 C33 1 33 1 33.09765625 3.28515625 C33.06510417 5.85677083 33.03255208 8.42838542 33 11 C29.04 11 25.08 11 21 11 C21 23.21 21 35.42 21 48 C17.7 48 14.4 48 11 48 C11 35.79 11 23.58 11 11 C7.37 11 3.74 11 0 11 C0 7.37 0 3.74 0 0 Z " fill="#FFFFFF" transform="translate(82,15)"/>
<path d="M0 0 C3.3 0 6.6 0 10 0 C11 1 11 1 11.12025452 2.90455627 C11.1169236 4.15365028 11.1169236 4.15365028 11.11352539 5.42797852 C11.11344986 6.36887833 11.11337433 7.30977814 11.11329651 8.27919006 C11.10813522 9.30209641 11.10297394 10.32500275 11.09765625 11.37890625 C11.0962413 12.42070541 11.09482635 13.46250458 11.09336853 14.53587341 C11.0877508 17.87811094 11.0751953 21.22028257 11.0625 24.5625 C11.05748728 26.82226466 11.05292398 29.08203037 11.04882812 31.34179688 C11.03777561 36.89455682 11.0204991 42.44726722 11 48 C7.37 48 3.74 48 0 48 C0 32.16 0 16.32 0 0 Z " fill="#FFFFFF" transform="translate(67,15)"/>
<path d="M0 0 C0.66 0 1.32 0 2 0 C4.64 6.6 7.28 13.2 10 20 C3.73 20 -2.54 20 -9 20 C-7.69045169 16.85290782 -6.37751869 13.70730538 -5.0625 10.5625 C-4.50272461 9.21575195 -4.50272461 9.21575195 -3.93164062 7.84179688 C-3.57392578 6.98779297 -3.21621094 6.13378906 -2.84765625 5.25390625 C-2.51773682 4.46314697 -2.18781738 3.6723877 -1.84790039 2.85766602 C-1 1 -1 1 0 0 Z " fill="#FFFFFF" transform="translate(340,25)"/>
</svg>
