<svg width="71" height="87" viewBox="0 0 71 87" fill="none" xmlns="http://www.w3.org/2000/svg">
<circle cx="35.3701" cy="35.3701" r="35.3701" fill="#F99E23"/>
<path d="M16.3436 48.3402C16.3436 46.4736 16.3436 44.6069 16.3436 42.7402C16.3436 40.8736 16.3769 39.1402 16.4436 37.5402C16.6436 31.9402 17.5436 27.7069 19.1436 24.8402C20.7436 21.9069 23.7436 20.4402 28.1436 20.4402L29.4436 25.2402C26.9769 25.3736 25.3769 26.2736 24.6436 27.9402C23.9102 29.6069 23.5436 31.8736 23.5436 34.7402H30.1436V48.3402H16.3436ZM36.2436 48.3402C36.2436 46.4736 36.2436 44.6069 36.2436 42.7402C36.2436 40.8736 36.2769 39.1402 36.3436 37.5402C36.5436 31.9402 37.4436 27.7069 39.0436 24.8402C40.6436 21.9069 43.6436 20.4402 48.0436 20.4402L49.3436 25.2402C46.8769 25.3736 45.2769 26.2736 44.5436 27.9402C43.8102 29.6069 43.4436 31.8736 43.4436 34.7402H50.0436V48.3402H36.2436Z" fill="white"/>
</svg>
